<svg xmlns="http://www.w3.org/2000/svg" xmlns:xlink="http://www.w3.org/1999/xlink" width="192" zoomAndPan="magnify" viewBox="0 0 144 143.999998" height="192" preserveAspectRatio="xMidYMid meet" version="1.0"><defs><g/></defs><g fill="#fca311" fill-opacity="0.4"><g transform="translate(29.095143, 125.387468)"><g><path d="M 43.25 1.3125 C 30.53125 1.3125 20.675781 -1.40625 13.6875 -6.84375 C 6.695312 -12.28125 2.71875 -20.289062 1.75 -30.875 L 24.03125 -34.078125 C 24.613281 -29.023438 26.601562 -25.164062 30 -22.5 C 33.394531 -19.832031 38.101562 -18.5 44.125 -18.5 C 49.269531 -18.5 53.222656 -19.394531 55.984375 -21.1875 C 58.753906 -22.976562 60.140625 -25.523438 60.140625 -28.828125 C 60.140625 -31.835938 58.679688 -34.21875 55.765625 -35.96875 C 52.859375 -37.71875 48.054688 -39.367188 41.359375 -40.921875 C 34.171875 -42.660156 28.097656 -44.769531 23.140625 -47.25 C 18.191406 -49.726562 14.457031 -52.957031 11.9375 -56.9375 C 9.414062 -60.914062 8.15625 -65.960938 8.15625 -72.078125 C 8.15625 -78.484375 9.804688 -84.160156 13.109375 -89.109375 C 16.410156 -94.054688 21.019531 -97.914062 26.9375 -100.6875 C 32.851562 -103.457031 39.695312 -104.84375 47.46875 -104.84375 C 57.5625 -104.84375 65.8125 -102.269531 72.21875 -97.125 C 78.625 -91.976562 82.3125 -84.941406 83.28125 -76.015625 L 62.46875 -72.515625 C 61.6875 -76.492188 59.890625 -79.570312 57.078125 -81.75 C 54.265625 -83.9375 50.722656 -85.03125 46.453125 -85.03125 C 42.179688 -85.03125 38.734375 -84.035156 36.109375 -82.046875 C 33.484375 -80.054688 32.171875 -77.363281 32.171875 -73.96875 C 32.171875 -70.863281 33.429688 -68.363281 35.953125 -66.46875 C 38.484375 -64.570312 43.097656 -62.800781 49.796875 -61.15625 C 56.878906 -59.40625 62.992188 -57.4375 68.140625 -55.25 C 73.285156 -53.070312 77.238281 -50.085938 80 -46.296875 C 82.769531 -42.515625 84.15625 -37.375 84.15625 -30.875 C 84.15625 -24.5625 82.457031 -18.976562 79.0625 -14.125 C 75.664062 -9.269531 70.882812 -5.484375 64.71875 -2.765625 C 58.5625 -0.046875 51.40625 1.3125 43.25 1.3125 Z M 43.25 1.3125 "/></g></g></g><g fill="#fca311" fill-opacity="1"><g transform="translate(22.660148, 118.952472)"><g><path d="M 43.25 1.3125 C 30.53125 1.3125 20.675781 -1.40625 13.6875 -6.84375 C 6.695312 -12.28125 2.71875 -20.289062 1.75 -30.875 L 24.03125 -34.078125 C 24.613281 -29.023438 26.601562 -25.164062 30 -22.5 C 33.394531 -19.832031 38.101562 -18.5 44.125 -18.5 C 49.269531 -18.5 53.222656 -19.394531 55.984375 -21.1875 C 58.753906 -22.976562 60.140625 -25.523438 60.140625 -28.828125 C 60.140625 -31.835938 58.679688 -34.21875 55.765625 -35.96875 C 52.859375 -37.71875 48.054688 -39.367188 41.359375 -40.921875 C 34.171875 -42.660156 28.097656 -44.769531 23.140625 -47.25 C 18.191406 -49.726562 14.457031 -52.957031 11.9375 -56.9375 C 9.414062 -60.914062 8.15625 -65.960938 8.15625 -72.078125 C 8.15625 -78.484375 9.804688 -84.160156 13.109375 -89.109375 C 16.410156 -94.054688 21.019531 -97.914062 26.9375 -100.6875 C 32.851562 -103.457031 39.695312 -104.84375 47.46875 -104.84375 C 57.5625 -104.84375 65.8125 -102.269531 72.21875 -97.125 C 78.625 -91.976562 82.3125 -84.941406 83.28125 -76.015625 L 62.46875 -72.515625 C 61.6875 -76.492188 59.890625 -79.570312 57.078125 -81.75 C 54.265625 -83.9375 50.722656 -85.03125 46.453125 -85.03125 C 42.179688 -85.03125 38.734375 -84.035156 36.109375 -82.046875 C 33.484375 -80.054688 32.171875 -77.363281 32.171875 -73.96875 C 32.171875 -70.863281 33.429688 -68.363281 35.953125 -66.46875 C 38.484375 -64.570312 43.097656 -62.800781 49.796875 -61.15625 C 56.878906 -59.40625 62.992188 -57.4375 68.140625 -55.25 C 73.285156 -53.070312 77.238281 -50.085938 80 -46.296875 C 82.769531 -42.515625 84.15625 -37.375 84.15625 -30.875 C 84.15625 -24.5625 82.457031 -18.976562 79.0625 -14.125 C 75.664062 -9.269531 70.882812 -5.484375 64.71875 -2.765625 C 58.5625 -0.046875 51.40625 1.3125 43.25 1.3125 Z M 43.25 1.3125 "/></g></g></g></svg>